<svg xmlns="http://www.w3.org/2000/svg" viewBox="0 0 512 512" width="512" height="512">
  <rect width="512" height="512" fill="#FFF8F5"/>
  <g transform="translate(128,100) scale(5.33)">
    <path d="M24 6c-2 0-3.5-.8-4.5-2C18.5 2.7 20 0 24 0s5.5 2.7 4.5 4c-1 1.2-2.5 2-4.5 2z" fill="#43A047"/>
    <path d="M24 8c-10 0-16 8-16 18s6 16 16 16 16-6 16-16-6-18-16-18z" fill="#E53935"/>
    <circle cx="20" cy="18" r="1.2" fill="#FFF8F5" opacity=".7"/>
    <circle cx="28" cy="18" r="1.2" fill="#FFF8F5" opacity=".7"/>
    <circle cx="16" cy="24" r="1.2" fill="#FFF8F5" opacity=".7"/>
    <circle cx="24" cy="23" r="1.2" fill="#FFF8F5" opacity=".7"/>
    <circle cx="32" cy="24" r="1.2" fill="#FFF8F5" opacity=".7"/>
    <circle cx="18" cy="30" r="1.2" fill="#FFF8F5" opacity=".7"/>
    <circle cx="30" cy="30" r="1.2" fill="#FFF8F5" opacity=".7"/>
    <circle cx="24" cy="32" r="1.2" fill="#FFF8F5" opacity=".7"/>
    <circle cx="21" cy="37" r="1" fill="#FFF8F5" opacity=".7"/>
    <circle cx="27" cy="37" r="1" fill="#FFF8F5" opacity=".7"/>
  </g>
</svg>
